# xmcd
#
# Track frame offsets:
#	150
#	15075
#	38486
#	54251
#	83466
#	100941
#	118491
#	140054
#	157779
#	176192
#
# Disc length: 2562 seconds
#
# Revision: 1
# Processed by: cddbd v1.5.1PL0 Copyright (c) Steve Scherf et al.
# Submitted via: audiograbber 1.83.01
#
DISCID=700a000a
DTITLE=Bad Mules - In Your Stall
DYEAR=2004
DGENRE=Blues
TTITLE0=All right, ok, you win
TTITLE1=Mojo boogie
TTITLE2=Caldonia
TTITLE3=Not my man
TTITLE4=Match box
TTITLE5=You belong to me
TTITLE6=On the run
TTITLE7=Indian Game
TTITLE8=Where's my money
TTITLE9=T-bone intentions
EXTD=
EXTT0=
EXTT1=
EXTT2=
EXTT3=
EXTT4=
EXTT5=
EXTT6=
EXTT7=
EXTT8=
EXTT9=
PLAYORDER=
